<?xml version="1.0" encoding="iso-8859-1"?>
<!-- Generator: Adobe Illustrator 19.0.0, SVG Export Plug-In . SVG Version: 6.00 Build 0)  -->
<svg version="1.1" id="Capa_1" xmlns="http://www.w3.org/2000/svg" xmlns:xlink="http://www.w3.org/1999/xlink" x="0px" y="0px"
	 viewBox="0 0 512.006 512.006" style="enable-background:new 0 0 512.006 512.006;" xml:space="preserve">
<g transform="translate(-1 -1)">
	<path style="fill:#4FBA6F;" d="M278.698,364.179c95.741-11.479,165.968-95.553,160.218-191.808S353.429,1,257.003,1
		S80.84,76.116,75.09,172.37c-5.75,96.255,64.477,180.329,160.218,191.808"/>
	<g>
		<path style="fill:#7F5B53;" d="M367.282,211.828c-3.389-3.388-8.882-3.388-12.271,0l-98.009,97.74l-98.061-97.757
			c-2.182-2.253-5.41-3.153-8.443-2.354c-3.033,0.798-5.399,3.171-6.189,6.206c-0.79,3.035,0.119,6.26,2.378,8.436l99.979,99.666
			c0.639,0.584,1.365,1.064,2.152,1.423c1.085,2.703,3.453,4.682,6.306,5.269c2.853,0.587,5.81-0.297,7.874-2.353l104.266-104.005
			C370.658,220.715,370.665,215.222,367.282,211.828z"/>
		<path style="fill:#7F5B53;" d="M242.19,241.446c0.98,0.942,2.17,1.638,3.471,2.031c-2.425,3.385-2.059,8.024,0.868,10.986
			c3.389,3.388,8.882,3.388,12.271,0l90.338-90.312c3.396-3.396,3.396-8.901,0-12.297c-3.396-3.396-8.901-3.396-12.297,0
			L256.395,232.3c-0.422-1.17-1.091-2.235-1.961-3.124l-78.102-78.102c-3.405-3.289-8.818-3.242-12.165,0.106
			c-3.347,3.347-3.394,8.76-0.106,12.165L242.19,241.446z"/>
		<path style="fill:#7F5B53;" d="M265.95,226.633h-17.894c-4.69-0.002-8.533,3.722-8.678,8.409l-8.409,269.286h52.068
			l-8.418-269.286C274.474,230.358,270.636,226.635,265.95,226.633z"/>
	</g>
	<g>
		<circle style="fill:#7ED09E;" cx="326.427" cy="87.785" r="26.034"/>
		<circle style="fill:#7ED09E;" cx="257.003" cy="53.074" r="17.356"/>
	</g>
	<g>
		<path style="fill:#805333;" d="M309.071,495.65H135.511c-4.793,0-8.678,3.885-8.678,8.678s3.885,8.678,8.678,8.678h173.559
			c4.793,0,8.678-3.885,8.678-8.678S313.863,495.65,309.071,495.65z"/>
		<path style="fill:#805333;" d="M378.494,495.65h-34.712c-4.793,0-8.678,3.885-8.678,8.678s3.885,8.678,8.678,8.678h34.712
			c4.793,0,8.678-3.885,8.678-8.678S383.287,495.65,378.494,495.65z"/>
	</g>
</g>
<g>
</g>
<g>
</g>
<g>
</g>
<g>
</g>
<g>
</g>
<g>
</g>
<g>
</g>
<g>
</g>
<g>
</g>
<g>
</g>
<g>
</g>
<g>
</g>
<g>
</g>
<g>
</g>
<g>
</g>
</svg>
