<svg id="Capa_1" enable-background="new 0 0 512 512" height="512" viewBox="0 0 512 512" width="512" xmlns="http://www.w3.org/2000/svg"><g><g fill="#acacac"><g><path d="m208.86 156.128h15.001v32.468h-15.001z" transform="matrix(.707 -.707 .707 .707 -58.508 203.474)"/><path d="m332.138 279.405h15.001v32.468h-15.001z" transform="matrix(.707 -.707 .707 .707 -109.571 326.752)"/></g><g><path d="m165.887 199.101h15.001v32.469h-15.001z" transform="matrix(.707 -.707 .707 .707 -101.481 185.674)"/><path d="m289.164 322.379h15.001v32.468h-15.001z" transform="matrix(.707 -.707 .707 .707 -152.545 308.951)"/></g></g><path d="m326.14 115.072h28.764v112.811h-28.764z" fill="#5a5a5a" transform="matrix(.707 -.707 .707 .707 -21.517 291.01)"/><path d="m148.804 336.048c5.649 3.045 10.888 6.929 15.553 11.595 4.716 4.716 8.579 9.964 11.601 15.548l20.291-20.291-27.149-27.149z" fill="#5a5a5a"/><g><path d="m211.622 359.687-59.309-59.309c-11.715-11.715-11.715-30.709 0-42.424l117.274-117.274c5.858-5.858 15.354-5.858 21.212 0l80.521 80.521c5.858 5.858 5.858 15.354 0 21.212l-117.274 117.274c-11.715 11.715-30.709 11.715-42.424 0z" fill="#fed402"/></g><g><path d="m242.909 359.687-66.379-66.379c-7.81-7.81-7.81-20.474 0-28.284l119.306-119.306-5.037-5.037c-5.858-5.858-15.354-5.858-21.212 0l-117.274 117.273c-11.715 11.715-11.715 30.709 0 42.424l59.309 59.309c10.001 10.001 25.302 11.457 36.855 4.383-1.98-1.213-3.853-2.669-5.568-4.383z" fill="#fac600"/></g><g><circle cx="269.686" cy="242.314" fill="#fff" r="29.767"/></g><g><path d="m269.185 263.362c-11.625-11.625-11.625-30.472 0-42.096 3.155-3.155 6.844-5.446 10.775-6.889-10.551-3.872-22.852-1.581-31.322 6.889-11.625 11.625-11.625 30.472 0 42.096 8.469 8.47 20.771 10.761 31.322 6.889-3.931-1.443-7.62-3.734-10.775-6.889z" fill="#eaf6ff"/></g><g><path d="m269.687 279.563c-9.543 0-19.086-3.633-26.352-10.897-7.039-7.039-10.915-16.398-10.915-26.353s3.876-19.313 10.915-26.352c7.039-7.038 16.397-10.915 26.352-10.915s19.313 3.877 26.352 10.916c7.038 7.038 10.915 16.396 10.915 26.351s-3.877 19.313-10.915 26.353c-7.267 7.265-16.81 10.897-26.352 10.897zm0-59.516c-5.947 0-11.539 2.316-15.745 6.521-4.206 4.206-6.521 9.798-6.521 15.745 0 5.948 2.316 11.54 6.521 15.746 8.683 8.681 22.808 8.682 31.489-.001 4.206-4.205 6.522-9.797 6.522-15.745 0-5.947-2.316-11.539-6.521-15.744-4.206-4.206-9.798-6.522-15.745-6.522z" fill="#fac600"/></g><g><g><g><path d="m413.581 502.009-125.142-125.141c-1.953-1.953-1.953-5.118 0-7.071l82.384-82.384c1.953-1.952 5.118-1.952 7.071 0l125.141 125.141c1.953 1.953 1.953 5.118 0 7.071l-82.384 82.384c-1.952 1.952-5.118 1.952-7.07 0z" fill="#d8ecfe"/></g><g><path d="m319.464 376.868c-1.952-1.953-1.952-5.118 0-7.071l70.407-70.407-11.977-11.977c-1.953-1.953-5.118-1.953-7.071 0l-82.384 82.384c-1.953 1.953-1.953 5.118 0 7.071l125.141 125.141c1.953 1.952 5.118 1.952 7.071 0l11.977-11.977z" fill="#c4e2ff"/></g><path d="m508.339 407.25-125.14-125.139c-2.361-2.362-5.5-3.663-8.84-3.663s-6.479 1.301-8.839 3.661l-41.187 41.187c-.002.002-.003.003-.005.005s-.003.003-.005.005l-41.188 41.187c-4.873 4.874-4.873 12.804 0 17.678l125.142 125.142c2.438 2.437 5.638 3.654 8.839 3.654s6.401-1.218 8.839-3.654l41.182-41.183c.003-.003.007-.006.01-.009s.006-.007.009-.01l41.18-41.181c2.362-2.361 3.663-5.5 3.663-8.84s-1.3-6.48-3.66-8.84zm-45.091-23.877-34.12 34.12-22.783-22.783 34.12-34.12zm-33.39-33.39-34.12 34.12-22.783-22.783 34.12-34.12zm-55.499-55.499 22.108 22.108-34.12 34.12-22.109-22.109zm-78.848 78.848 34.121-34.12 22.109 22.109-34.121 34.121zm32.716 32.716 34.121-34.121 22.783 22.783-34.121 34.121zm33.39 33.39 34.121-34.121 22.783 22.783-34.121 34.121zm55.499 55.5-22.109-22.109 34.121-34.121 22.109 22.109zm44.728-44.729-22.109-22.109 34.12-34.12 22.108 22.108z" fill="#b3dafe"/></g><g><g><path d="m135.132 223.561-125.141-125.142c-1.953-1.953-1.953-5.118 0-7.071l82.385-82.384c1.953-1.953 5.118-1.953 7.071 0l125.141 125.141c1.953 1.953 1.953 5.118 0 7.071l-82.384 82.384c-1.953 1.953-5.119 1.953-7.072.001z" fill="#d8ecfe"/></g><g><path d="m41.464 98.419c-1.952-1.952-1.952-5.118 0-7.071l70.183-70.183-12.201-12.201c-1.953-1.953-5.118-1.953-7.071 0l-82.384 82.385c-1.953 1.953-1.953 5.118 0 7.071l125.141 125.14c1.952 1.953 5.118 1.953 7.071 0l12.201-12.201z" fill="#c4e2ff"/></g><path d="m229.891 128.802-125.141-125.14c-2.361-2.361-5.5-3.662-8.839-3.662s-6.478 1.301-8.838 3.661l-41.188 41.187c-.002.002-.003.003-.005.005s-.003.003-.005.005l-41.187 41.187c-2.361 2.36-3.662 5.5-3.662 8.839s1.3 6.479 3.661 8.839l125.141 125.142c2.437 2.437 5.637 3.654 8.838 3.654s6.402-1.219 8.839-3.654l82.384-82.385c2.361-2.36 3.662-5.5 3.662-8.839s-1.3-6.479-3.66-8.839zm-45.091-23.877-34.121 34.121-22.783-22.783 34.12-34.121zm-33.39-33.39-34.12 34.121-22.784-22.784 34.12-34.12zm-55.499-55.499 22.108 22.108-34.12 34.12-22.108-22.108zm-78.849 78.848 34.121-34.121 22.109 22.109-34.121 34.121zm32.716 32.716 34.121-34.121 22.784 22.784-34.121 34.121zm33.391 33.39 34.121-34.121 22.783 22.783-34.121 34.121zm55.498 55.499-22.109-22.109 34.121-34.121 22.109 22.109zm44.728-44.728-22.109-22.109 34.121-34.121 22.109 22.109z" fill="#b3dafe"/></g></g><g><g><path d="m62.163 512c-34.277 0-62.163-27.887-62.163-62.163 0-4.143 3.358-7.5 7.5-7.5s7.5 3.357 7.5 7.5c0 26.006 21.157 47.163 47.163 47.163 4.142 0 7.5 3.357 7.5 7.5s-3.358 7.5-7.5 7.5z" fill="#00f2a6"/></g><g><path d="m62.163 482.762c-18.154 0-32.924-14.77-32.924-32.925 0-4.143 3.358-7.5 7.5-7.5s7.5 3.357 7.5 7.5c0 9.884 8.041 17.925 17.924 17.925 4.142 0 7.5 3.357 7.5 7.5s-3.358 7.5-7.5 7.5z" fill="#00c285"/></g></g><path d="m112.671 388.723-26.952 26.951c2.399.89 4.605 2.276 6.468 4.139 1.894 1.894 3.259 4.113 4.132 6.474l26.958-26.957z" fill="#5a5a5a"/><g><path d="m165.064 346.936c-24.793-24.793-64.054-26.3-90.605-4.522-2.807 2.303-2.951 6.559-.384 9.127l86.384 86.384c2.568 2.568 6.824 2.424 9.127-.384 21.778-26.551 20.271-65.812-4.522-90.605z" fill="#acacac"/></g><g><path d="m105.213 351.541c-2.568-2.568-2.424-6.824.384-9.127 8.147-6.682 17.492-11.162 27.247-13.46-19.984-4.712-41.694-.23-58.384 13.46-2.807 2.303-2.951 6.559-.384 9.127l86.384 86.384c2.568 2.568 6.824 2.424 9.127-.384 3.379-4.119 6.195-8.545 8.453-13.175z" fill="#9c9c9c"/></g><g><circle cx="79.447" cy="432.553" fill="#fe646f" r="19.018"/></g><g><path d="m82.535 446c-7.427-7.427-7.427-19.468 0-26.895 1.551-1.551 3.31-2.759 5.18-3.662-7.082-3.422-15.839-2.214-21.715 3.662-7.427 7.427-7.427 19.468 0 26.895 5.876 5.876 14.633 7.083 21.715 3.662-1.87-.903-3.629-2.11-5.18-3.662z" fill="#fd4755"/></g><g><path d="m226.844 318.707-33.551-33.551c-4.908-4.908-4.908-12.939 0-17.846 4.908-4.908 12.939-4.908 17.846 0l33.551 33.551c4.908 4.908 4.908 12.939 0 17.846-4.907 4.908-12.938 4.908-17.846 0z" fill="#fff"/></g><g><path d="m211.683 286.837 1.154-1.154c3.802-3.802 9.474-4.645 14.121-2.556l-15.818-15.818c-4.908-4.908-12.939-4.908-17.846 0-4.908 4.908-4.908 12.939 0 17.846l15.863 15.863c-2.125-4.657-1.292-10.362 2.526-14.181z" fill="#eaf6ff"/></g><g><g><circle cx="295.375" cy="182.36" fill="#fff" r="7.5"/></g><g><circle cx="312.507" cy="199.493" fill="#fff" r="7.5"/></g><g><circle cx="329.64" cy="216.625" fill="#fff" r="7.5"/></g></g><g><path d="m398.204 210.235-96.439-96.439c-1.953-1.953-1.953-5.118 0-7.071l16.487-16.487c1.953-1.953 5.118-1.953 7.071 0l96.439 96.439c1.953 1.953 1.953 5.118 0 7.071l-16.487 16.487c-1.953 1.952-5.118 1.952-7.071 0z" fill="#acacac"/></g></g></svg>