<?xml version="1.0" encoding="iso-8859-1"?>
<!-- Generator: Adobe Illustrator 21.0.0, SVG Export Plug-In . SVG Version: 6.00 Build 0)  -->
<svg xmlns="http://www.w3.org/2000/svg" xmlns:xlink="http://www.w3.org/1999/xlink" version="1.1" id="Capa_1" x="0px" y="0px" viewBox="0 0 512 512" style="enable-background:new 0 0 512 512;" xml:space="preserve" width="512" height="512">
<g>
	<g>
		<g>
			<g>
				<g>
					<g>
						<g>
							<g>
								<g>
									<g>
										<g>
											<g>
												<g>
													<circle style="fill:#4BB9EC;" cx="256" cy="256" r="256"/>
												</g>
											</g>
										</g>
									</g>
								</g>
							</g>
						</g>
					</g>
				</g>
			</g>
		</g>
	</g>
	<path style="fill:#0095FF;" d="M512,256c0-24.664-3.498-48.508-10.007-71.076L439,121.931L73,390.069l111.924,111.924   C207.492,508.502,231.336,512,256,512C397.385,512,512,397.385,512,256z"/>
	<g>
		<rect x="88" y="136.931" style="fill:#7FE881;" width="336" height="238.138"/>
		<rect x="256" y="136.931" style="fill:#5BC980;" width="168" height="238.139"/>
		<path style="fill:#FFFFFF;" d="M439,390.069H73V121.931h366V390.069z M103,360.069h306V151.931H103V360.069z"/>
		<polygon style="fill:#E9EDF5;" points="439,121.931 256,121.931 256,151.931 409,151.931 409,360.069 256,360.069 256,390.069     439,390.069   "/>
	</g>
	<g>
		<polygon style="fill:#FFDA00;" points="256,399.639 169.733,435.5 256,221.594 342.267,435.5   "/>
	</g>
	<g>
		<polygon style="fill:#FFB000;" points="256,221.594 256,399.639 342.267,435.5   "/>
	</g>
</g>















</svg>
