<svg height="512pt" viewBox="0 0 512 512.001" width="512pt" xmlns="http://www.w3.org/2000/svg"><path d="m496.308594 512c-.003906 0-.007813 0-.007813 0l-481.308593-.308594c-4.042969-.003906-7.910157-1.636718-10.734376-4.53125-2.820312-2.894531-4.351562-6.800781-4.25390575-10.84375.27343775-10.894531 1.22265575-21.679687 2.82812475-32.296875 4.367188-28.878906 64.167969-42.546875 77.816407-68.003906 10.628906-19.832031-26.632813-52.324219-10.839844-69.003906 2.371094-2.503907 4.800781-4.96875 7.28125-7.386719 48.039062-46.859375 111.453125-72.664062 178.5625-72.664062 59.777344 0 116.613281 20.46875 162.269531 58.054687 5.644531 4.648437-33.089844 82.988281-20.261719 110 11.332032 23.859375 112.746094 64.636719 113.113282 70.007813.261718 3.859374.441406 7.734374.53125 11.621093.097656 4.039063-1.441407 7.949219-4.269532 10.839844-2.820312 2.886719-6.6875 4.515625-10.726562 4.515625zm0 0" fill="#3aaaff"/><path d="m510.773438 485.023438c-.367188-5.371094-101.78125-46.148438-113.113282-70.007813-12.828125-27.011719 25.90625-105.351563 20.261719-110-45.65625-37.585937-102.492187-58.054687-162.265625-58.054687v264.886718l240.644531.152344h.007813c4.039062 0 7.90625-1.628906 10.730468-4.515625 2.824219-2.890625 4.363282-6.800781 4.269532-10.839844-.09375-3.886719-.273438-7.761719-.535156-11.621093zm0 0" fill="#008adf"/><path d="m255.65625 247.171875c-5.222656 0-10-2.949219-12.332031-7.621094l-19.695313-39.394531c-41.878906-13.710938-70.601562-52.933594-70.601562-97.527344 0-56.589844 46.039062-102.628906 102.628906-102.628906s102.628906 46.039062 102.628906 102.628906c0 44.59375-28.722656 83.816406-70.601562 97.53125l-19.699219 39.390625c-2.332031 4.671875-7.109375 7.621094-12.328125 7.621094zm0 0" fill="#ff415b"/><path d="m255.65625 0v247.171875c5.21875 0 9.996094-2.949219 12.328125-7.621094l19.699219-39.394531c41.878906-13.710938 70.597656-52.933594 70.597656-97.527344.003906-56.589844-46.035156-102.628906-102.625-102.628906zm0 0" fill="#b20042"/><path d="m255.65625 132.628906c-16.542969 0-30.003906-13.457031-30.003906-30 0-16.542968 13.460937-30 30.003906-30s30 13.457032 30 30c0 16.542969-13.457031 30-30 30zm0 0" fill="#f3eee9"/><path d="m67.988281 471.039062c24.40625 0 44.59375-19.851562 44.996094-44.25.136719-8.132812 6.863281-14.75 15-14.75h10.664063c24.816406 0 45.003906-20.1875 45.003906-45.003906 0-24.8125-20.1875-45-45.003906-45h-63.96875c-40.535157 40.582032-65.863282 92.660156-72.804688 149.003906zm0 0" fill="#00ff8d"/><path d="m434.328125 319.738281c-5.277344-5.15625-10.75-10.039062-16.386719-14.679687-23.964844.523437-43.617187 20.15625-44.015625 44.226562-.132812 8.132813-6.863281 14.75-14.996093 14.75h-32.769532c-24.816406 0-45.003906 20.1875-45.003906 45.003906 0 24.8125 20.1875 45 45.003906 45h30.722656c2.09375 6.390626 5.636719 12.277344 10.476563 17.277344 8.566406 8.851563 20.039063 13.722656 32.304687 13.722656h111.101563c-4.285156-62.757812-31.164063-121.085937-76.4375-165.300781zm0 0" fill="#00dd7b"/><path d="m255.65625 72.628906v60c16.542969 0 30-13.457031 30-30 0-16.542968-13.457031-30-30-30zm0 0" fill="#e9dfda"/></svg>